<svg width="16" height="17" viewBox="0 0 16 17" fill="none" xmlns="http://www.w3.org/2000/svg">
<path d="M1.66602 8.49996C1.66602 5.5144 1.66602 4.02162 2.59351 3.09412C3.52101 2.16663 5.01379 2.16663 7.99935 2.16663C10.9849 2.16663 12.4777 2.16663 13.4052 3.09412C14.3327 4.02162 14.3327 5.5144 14.3327 8.49996C14.3327 11.4855 14.3327 12.9783 13.4052 13.9058C12.4777 14.8333 10.9849 14.8333 7.99935 14.8333C5.01379 14.8333 3.52101 14.8333 2.59351 13.9058C1.66602 12.9783 1.66602 11.4855 1.66602 8.49996Z" stroke="#33395E" stroke-width="1.25"/>
<path d="M10.6673 8.50004H5.33398M10.6673 8.50004C10.6673 8.03324 9.33778 7.16106 9.00065 6.83337M10.6673 8.50004C10.6673 8.96684 9.33778 9.83904 9.00065 10.1667" stroke="#33395E" stroke-linecap="round" stroke-linejoin="round"/>
</svg>
